<?xml version="1.0" encoding="utf-8"?>
<!-- Generator: Adobe Illustrator 26.3.1, SVG Export Plug-In . SVG Version: 6.00 Build 0)  -->
<svg version="1.1" id="Design" xmlns="http://www.w3.org/2000/svg" xmlns:xlink="http://www.w3.org/1999/xlink" x="0px" y="0px"
	 viewBox="0 0 1000 400" style="enable-background:new 0 0 1000 400;" xml:space="preserve">
<style type="text/css">
	.st0{fill-rule:evenodd;clip-rule:evenodd;fill:url(#SVGID_1_);}
	.st1{fill-rule:evenodd;clip-rule:evenodd;fill:url(#SVGID_00000021817905502996384760000015953063171146197386_);}
	.st2{fill-rule:evenodd;clip-rule:evenodd;fill:#2A2251;}
	.st3{fill-rule:evenodd;clip-rule:evenodd;fill:#FFFFFF;}
	.st4{fill-rule:evenodd;clip-rule:evenodd;fill:url(#SVGID_00000023997939210118533000000011703765006905194134_);}
	.st5{fill-rule:evenodd;clip-rule:evenodd;fill:url(#SVGID_00000168078417985365576980000002605987286910583484_);}
	.st6{fill:#2A2251;}
	.st7{fill:#FFFFFF;}
</style>
<g>
	<g>
		<g>
			<polygon class="st3" points="199.07,135.87 190.49,130.92 181.82,125.91 173.24,120.96 164.58,115.95 156,111 147.33,105.99 
				138.75,110.95 130.08,115.95 121.5,120.91 112.83,125.91 104.25,130.86 95.58,135.87 87.01,140.82 87.01,150.83 87.01,160.74 
				95.58,155.78 104.25,150.78 112.83,145.83 121.5,140.82 130.08,135.87 138.75,130.86 138.75,140.87 138.75,150.78 138.75,170.7 
				138.75,177.48 138.75,190.61 138.75,210.53 138.75,220.54 138.75,230.44 138.75,250.36 138.75,260.36 130.08,255.36 
				121.5,250.41 112.83,245.41 104.25,240.45 104.25,230.44 104.25,230.44 104.25,220.54 104.25,210.53 104.25,200.62 
				104.25,200.62 104.25,190.61 112.83,185.66 121.5,180.65 130.08,175.7 134.32,173.25 134.32,153.34 130.08,155.78 121.5,160.74 
				112.83,165.74 104.25,170.7 95.58,175.7 87.01,180.65 87.01,190.66 87.01,190.66 87.01,200.57 87.01,200.57 87.01,210.58 
				87.01,210.58 87.01,220.49 87.01,220.49 87.01,230.5 87.01,230.5 87.01,240.4 87.01,240.4 87.01,250.41 95.58,255.36 
				104.25,260.37 112.83,265.32 121.5,270.33 130.08,275.28 130.73,275.66 138.75,280.28 147.33,285.24 147.35,285.22 
				147.37,285.24 156,280.26 156,230.5 156,220.48 156,210.58 156,190.66 156,181.28 156,170.75 164.58,175.7 173.24,180.71 
				181.82,185.66 190.49,190.66 199.07,195.62 207.74,200.62 207.74,190.61 207.74,180.71 199.07,175.7 190.49,170.75 
				181.82,165.74 173.24,160.79 164.58,155.78 156,150.83 156,140.82 156,130.92 164.58,135.87 173.24,140.87 181.82,145.83 
				190.49,150.83 199.07,155.78 207.74,160.79 207.74,150.78 207.74,140.87 			"/>
			<polygon class="st3" points="173.29,250.36 164.62,255.36 160.41,257.8 160.41,277.71 164.62,275.28 173.29,270.27 
				181.87,265.32 207.74,250.36 207.74,230.44 181.87,245.41 			"/>
		</g>
	</g>
	<g>
		<g>
			<g>
				<path class="st7" d="M266.02,252.19H261c-1.27,0-1.9-0.69-1.9-2.08v-99.91c0-1.04-0.58-1.56-1.73-1.56h-25.11
					c-1.38,0-2.08-0.63-2.08-1.9v-3.98c0-1.27,0.69-1.9,2.08-1.9h62.34c1.39,0,2.08,0.64,2.08,1.9v3.98c0,1.27-0.69,1.9-2.08,1.9
					h-25.11c-1.16,0-1.73,0.52-1.73,1.56v99.91C267.75,251.5,267.17,252.19,266.02,252.19z"/>
				<path class="st7" d="M361.24,252.19h-53.5c-1.16,0-1.73-0.69-1.73-2.08V142.93c0-1.39,0.58-2.08,1.73-2.08h53.5
					c1.39,0,2.08,0.64,2.08,1.9v3.98c0,1.27-0.69,1.9-2.08,1.9H316.4c-1.16,0-1.73,0.52-1.73,1.56v39.83c0,1.04,0.58,1.56,1.73,1.56
					h40c1.27,0,1.9,0.64,1.9,1.9v3.98c0,1.27-0.64,1.9-1.9,1.9h-40c-1.16,0-1.73,0.52-1.73,1.56v41.9c0,1.04,0.58,1.56,1.73,1.56
					h44.85c1.39,0,2.08,0.64,2.08,1.9v3.98C363.32,251.56,362.63,252.19,361.24,252.19z"/>
				<path class="st7" d="M371.71,227.61v-6.23c0-1.27,0.63-1.9,1.9-1.9h5.02c1.27,0,1.9,0.64,1.9,1.9v5.71
					c0,11.54,5.6,17.32,16.8,17.32h18.01c11.2,0,16.8-5.83,16.8-17.49v-7.27c0-5.08-2.08-9.06-6.23-11.95
					c-4.16-2.88-9.18-4.96-15.06-6.23c-5.89-1.27-11.8-2.6-17.75-3.98c-5.95-1.39-11-3.92-15.15-7.62
					c-4.16-3.69-6.23-8.66-6.23-14.89v-9.52c0-7.62,2.19-13.62,6.58-18.01c4.39-4.39,10.33-6.58,17.83-6.58h20.09
					c7.5,0,13.45,2.19,17.83,6.58c4.39,4.39,6.58,10.39,6.58,18.01v4.85c0,1.27-0.64,1.9-1.9,1.9h-5.02c-1.27,0-1.9-0.63-1.9-1.9
					v-4.33c0-11.54-5.6-17.32-16.8-17.32h-17.83c-11.08,0-16.62,5.89-16.62,17.66v8.66c0,7.97,7.1,13.33,21.3,16.1
					c5.89,1.16,11.8,2.48,17.75,3.98c5.94,1.5,11,4.22,15.15,8.14c4.16,3.93,6.23,9.24,6.23,15.93v8.48
					c0,7.62-2.19,13.62-6.58,18.01c-4.39,4.39-10.33,6.58-17.83,6.58h-20.43c-7.51,0-13.45-2.19-17.83-6.58
					C373.9,241.23,371.71,235.22,371.71,227.61z"/>
				<path class="st7" d="M482.52,252.19h-5.02c-1.27,0-1.9-0.69-1.9-2.08v-99.91c0-1.04-0.58-1.56-1.73-1.56h-25.11
					c-1.39,0-2.08-0.63-2.08-1.9v-3.98c0-1.27,0.69-1.9,2.08-1.9h62.34c1.39,0,2.08,0.64,2.08,1.9v3.98c0,1.27-0.69,1.9-2.08,1.9
					h-25.11c-1.16,0-1.73,0.52-1.73,1.56v99.91C484.25,251.5,483.67,252.19,482.52,252.19z"/>
				<path class="st7" d="M567.23,252.19h-21.82c-7.51,0-13.42-2.19-17.75-6.58c-4.33-4.39-6.49-10.39-6.49-18.01v-62.16
					c0-7.62,2.16-13.62,6.49-18.01c4.33-4.39,10.24-6.58,17.75-6.58h21.82c7.5,0,13.42,2.19,17.75,6.58
					c4.33,4.39,6.49,10.39,6.49,18.01v8.48c0,1.39-0.64,2.08-1.9,2.08h-4.85c-1.27,0-1.9-0.69-1.9-2.08v-8.14
					c0-5.54-1.42-9.78-4.24-12.73c-2.83-2.94-6.9-4.42-12.21-4.42h-20.26c-5.31,0-9.35,1.5-12.12,4.5c-2.77,3-4.16,7.22-4.16,12.64
					v61.47c0,5.43,1.39,9.64,4.16,12.64c2.77,3,6.81,4.5,12.12,4.5h20.26c5.31,0,9.38-1.47,12.21-4.42
					c2.83-2.94,4.24-7.19,4.24-12.73v-8.14c0-1.39,0.63-2.08,1.9-2.08h4.85c1.27,0,1.9,0.69,1.9,2.08v8.48
					c0,7.62-2.16,13.62-6.49,18.01C580.65,250,574.74,252.19,567.23,252.19z"/>
				<path class="st7" d="M645.09,252.19h-21.3c-7.51,0-13.42-2.19-17.75-6.58c-4.33-4.39-6.49-10.39-6.49-18.01v-62.16
					c0-7.62,2.16-13.62,6.49-18.01c4.33-4.39,10.24-6.58,17.75-6.58h21.3c7.5,0,13.42,2.19,17.75,6.58
					c4.33,4.39,6.49,10.39,6.49,18.01v62.16c0,7.62-2.16,13.62-6.49,18.01C658.51,250,652.59,252.19,645.09,252.19z M624.48,244.4
					h19.74c5.31,0,9.38-1.47,12.21-4.42c2.83-2.94,4.24-7.19,4.24-12.73v-61.47c0-5.54-1.42-9.78-4.24-12.73
					c-2.83-2.94-6.9-4.42-12.21-4.42h-19.74c-5.31,0-9.35,1.5-12.12,4.5c-2.77,3-4.16,7.22-4.16,12.64v61.47
					c0,5.43,1.39,9.64,4.16,12.64C615.13,242.9,619.17,244.4,624.48,244.4z"/>
				<path class="st7" d="M758.52,140.86h9.35c1.15,0,1.73,0.69,1.73,2.08v107.18c0,1.39-0.58,2.08-1.73,2.08h-5.02
					c-1.27,0-1.9-0.69-1.9-2.08v-95.93h-0.69l-30.65,71.86c-0.69,1.27-1.56,1.9-2.6,1.9h-5.71c-1.16,0-1.96-0.63-2.42-1.9
					l-31.17-72.03h-0.69v96.1c0,1.39-0.58,2.08-1.73,2.08h-5.02c-1.16,0-1.73-0.69-1.73-2.08V142.93c0-1.39,0.58-2.08,1.73-2.08
					h9.35c0.81,0,1.33,0.35,1.56,1.04l32.55,76.01h0.69l32.55-76.01C757.19,141.2,757.71,140.86,758.52,140.86z"/>
				<path class="st7" d="M779.08,250.12V142.93c0-1.39,0.58-2.08,1.73-2.08h40.35c7.5,0,13.45,2.14,17.83,6.41
					c4.39,4.27,6.58,10.16,6.58,17.66v10.56c0,10.51-4.96,17.26-14.89,20.26c4.27,0.23,8.02,2.19,11.26,5.89
					c3.23,3.7,4.85,8.48,4.85,14.37v12.12c0,7.51-2.19,13.39-6.58,17.66c-4.39,4.27-10.33,6.41-17.83,6.41h-41.56
					C779.66,252.19,779.08,251.5,779.08,250.12z M789.47,191.94h30.47c5.42,0,9.61-1.44,12.55-4.33c2.94-2.88,4.42-6.98,4.42-12.29
					V165.1c0-11.08-5.48-16.62-16.45-16.62h-30.99c-1.16,0-1.73,0.52-1.73,1.56v40.35C787.74,191.42,788.32,191.94,789.47,191.94z
					 M789.47,244.57h32.21c10.97,0,16.45-5.54,16.45-16.62V216c0-10.97-6-16.45-18.01-16.45h-30.65c-1.16,0-1.73,0.46-1.73,1.39
					v42.08C787.74,244.06,788.32,244.57,789.47,244.57z"/>
				<path class="st7" d="M910.92,252.19h-53.5c-1.16,0-1.73-0.69-1.73-2.08V142.93c0-1.39,0.58-2.08,1.73-2.08h53.5
					c1.39,0,2.08,0.64,2.08,1.9v3.98c0,1.27-0.69,1.9-2.08,1.9h-44.85c-1.16,0-1.73,0.52-1.73,1.56v39.83
					c0,1.04,0.58,1.56,1.73,1.56h40c1.27,0,1.9,0.64,1.9,1.9v3.98c0,1.27-0.64,1.9-1.9,1.9h-40c-1.16,0-1.73,0.52-1.73,1.56v41.9
					c0,1.04,0.58,1.56,1.73,1.56h44.85c1.39,0,2.08,0.64,2.08,1.9v3.98C912.99,251.56,912.3,252.19,910.92,252.19z"/>
			</g>
			<g>
				<path class="st7" d="M617.08,282.44h1.61v8.61c-2.07,1.97-5.06,2.96-8.21,2.96c-6.93,0-12.02-4.96-12.02-11.66
					c0-6.7,5.09-11.66,12.06-11.66c3.32,0,6.24,1.05,8.28,3.15l-1.05,1.12c-2-1.97-4.4-2.73-7.19-2.73
					c-5.98,0-10.41,4.34-10.41,10.12c0,5.75,4.44,10.12,10.41,10.12c2.43,0,4.67-0.59,6.54-2.1V282.44z"/>
				<path class="st7" d="M656.7,287.37h-13.34l-2.92,6.47h-1.81l10.58-23h1.68l10.58,23h-1.81L656.7,287.37z M656.07,285.96
					l-6.04-13.27l-6.01,13.27H656.07z"/>
				<path class="st7" d="M703.8,293.84l-0.03-19.68l-9.63,16.62h-0.82l-9.63-16.56v19.61h-1.64v-23h1.41l10.28,17.77l10.28-17.77
					h1.38l0.03,23H703.8z"/>
				<path class="st7" d="M745.75,292.33v1.51h-15.87v-23h15.38v1.51h-13.7v9.07h12.25v1.48h-12.25v9.43H745.75z"/>
				<path class="st7" d="M765.96,290.88l0.75-1.25c1.58,1.64,4.5,2.89,7.59,2.89c4.6,0,6.64-2,6.64-4.5
					c0-6.9-14.36-2.76-14.36-11.24c0-3.25,2.5-6.11,8.15-6.11c2.53,0,5.16,0.79,6.93,2.07l-0.62,1.35
					c-1.91-1.31-4.24-1.94-6.31-1.94c-4.47,0-6.47,2.07-6.47,4.6c0,6.9,14.36,2.83,14.36,11.17c0,3.25-2.59,6.08-8.28,6.08
					C770.92,294.01,767.63,292.72,765.96,290.88z"/>
				<path class="st7" d="M827.39,282.34c0-6.7,5.09-11.66,11.93-11.66c3.25,0,6.18,1.05,8.18,3.19l-1.05,1.08
					c-1.97-1.94-4.37-2.73-7.06-2.73c-5.88,0-10.32,4.34-10.32,10.12c0,5.78,4.43,10.12,10.32,10.12c2.69,0,5.09-0.82,7.06-2.76
					l1.05,1.08c-2,2.14-4.93,3.22-8.18,3.22C832.48,294.01,827.39,289.05,827.39,282.34z"/>
				<path class="st7" d="M866.84,282.34c0-6.67,5.09-11.66,11.96-11.66c6.83,0,11.96,4.96,11.96,11.66c0,6.7-5.12,11.66-11.96,11.66
					C871.93,294.01,866.84,289.01,866.84,282.34z M889.05,282.34c0-5.81-4.4-10.12-10.25-10.12c-5.88,0-10.28,4.3-10.28,10.12
					c0,5.81,4.4,10.12,10.28,10.12C884.64,292.46,889.05,288.16,889.05,282.34z"/>
				<path class="st7" d="M910.23,292.56c0-0.79,0.62-1.38,1.38-1.38s1.38,0.59,1.38,1.38s-0.62,1.41-1.38,1.41
					S910.23,293.35,910.23,292.56z"/>
			</g>
		</g>
	</g>
</g>
</svg>
