<svg width="50" height="50" viewBox="0 0 50 50" fill="none" xmlns="http://www.w3.org/2000/svg">
<path fill-rule="evenodd" clip-rule="evenodd" d="M50 8C50 3.58172 46.4183 0 42 0H8C3.58172 0 0 3.58172 0 8V42C0 46.4183 3.58172 50 8 50H42C46.4183 50 50 46.4183 50 42V8ZM20.4019 11.0269L23.0954 8.33333H28.9879L24.8213 12.5L29.5981 17.2769C30.4117 18.0905 30.4117 19.4095 29.5981 20.2231L24.8213 25L29.5981 29.7769C30.4117 30.5905 30.4117 31.9095 29.5981 32.7231L24.8213 37.5L28.9879 41.6667H23.0954L20.4019 38.9731C19.5883 38.1595 19.5883 36.8405 20.4019 36.0269L25.1787 31.25L20.4019 26.4731C19.5883 25.6595 19.5883 24.3405 20.4019 23.5269L25.1787 18.75L20.4019 13.9731C19.5883 13.1595 19.5883 11.8405 20.4019 11.0269Z" fill="#2D2229"/>
</svg>
