<svg width="27" height="28" viewBox="0 0 27 28" fill="none" xmlns="http://www.w3.org/2000/svg">
<path d="M3.06066 1.18934C2.47487 0.603553 1.52513 0.603553 0.93934 1.18934C0.353553 1.77513 0.353553 2.72487 0.93934 3.31066L3.06066 1.18934ZM25.5 27.25C26.3284 27.25 27 26.5784 27 25.75V12.25C27 11.4216 26.3284 10.75 25.5 10.75C24.6716 10.75 24 11.4216 24 12.25V24.25H12C11.1716 24.25 10.5 24.9216 10.5 25.75C10.5 26.5784 11.1716 27.25 12 27.25H25.5ZM0.93934 3.31066L24.4393 26.8107L26.5607 24.6893L3.06066 1.18934L0.93934 3.31066Z" fill="#D6A24C"/>
</svg>
