<svg width="35" height="36" viewBox="0 0 35 36" fill="none" xmlns="http://www.w3.org/2000/svg">
<path d="M16.4453 16.2617C15.9922 16.4531 15.6289 16.7383 15.3594 17.1211C15.0898 17.5039 14.9531 17.9648 14.9531 18.5078C14.9531 19.2031 15.2461 19.7383 15.8281 20.1172C16.3789 20.4727 16.957 20.5625 17.5625 20.3828C18.2617 20.1797 18.7344 19.6836 18.9844 18.8945C19.1016 18.5312 19.1602 18.125 19.1602 17.6719V15.7109C18.668 15.7266 18.207 15.7734 17.7734 15.8555C17.3398 15.9375 16.8984 16.0742 16.4453 16.2617ZM17.5 0.5C7.83594 0.5 0 8.33594 0 18C0 27.6641 7.83594 35.5 17.5 35.5C27.1641 35.5 35 27.6641 35 18C35 8.33594 27.1641 0.5 17.5 0.5ZM18.8984 10.7617C18.6172 10.3359 18.1133 10.1211 17.3867 10.1211C17.3359 10.1211 17.2695 10.125 17.1797 10.1328C17.0938 10.1406 16.9219 10.1914 16.6758 10.2773C16.4286 10.3658 16.1937 10.4852 15.9766 10.6328C15.7617 10.7812 15.5273 11.0234 15.2734 11.3516C15.0234 11.6836 14.8242 12.0703 14.6758 12.5156L11.0039 12.1875C11.0039 11.7031 11.0977 11.2227 11.2773 10.7461C11.4609 10.2695 11.7383 9.8125 12.1133 9.37891C12.4883 8.94141 12.9375 8.55859 13.4609 8.23047C13.9844 7.89844 14.6172 7.63672 15.3516 7.4375C16.0898 7.23828 16.8789 7.14062 17.7305 7.14062C18.5625 7.14062 19.3164 7.24219 19.9883 7.44141C20.6602 7.64453 21.2031 7.89062 21.6055 8.1875C21.9931 8.46717 22.3345 8.80592 22.6172 9.19141C22.8867 9.56641 23.0742 9.91406 23.1797 10.2344C23.2852 10.5547 23.3359 10.8477 23.3359 11.125V18.2539C23.3359 18.5039 23.3906 18.7617 23.5039 19.0273C23.6172 19.293 23.75 19.5273 23.9023 19.7305C24.0547 19.9336 24.2109 20.1172 24.3711 20.2891C24.5312 20.457 24.668 20.5898 24.7852 20.6758L24.9453 20.8086L22.1133 23.5195C21.7812 23.2188 21.4531 22.918 21.1289 22.6055C20.8047 22.293 20.5625 22.0586 20.4062 21.8984L20.168 21.6562C20.0742 21.5664 19.9727 21.4336 19.8555 21.2578C19.5391 21.7344 19.1328 22.1484 18.6406 22.5C18.1445 22.8516 17.6133 23.1094 17.0508 23.2695C16.4844 23.4297 15.9023 23.5234 15.3047 23.5469C14.707 23.5703 14.1328 23.4883 13.5898 23.293C13.0469 23.0977 12.5547 22.8359 12.1211 22.5C11.6875 22.1641 11.3437 21.7109 11.0859 21.1328C10.8281 20.5547 10.6992 19.9023 10.6992 19.1641C10.6992 18.4844 10.8164 17.8633 11.0469 17.3008C11.2812 16.7344 11.5781 16.2656 11.9453 15.8906C12.3125 15.5156 12.7539 15.1797 13.2734 14.8867C13.793 14.5938 14.3047 14.3633 14.8047 14.1953C15.3047 14.0312 15.8438 13.8906 16.4258 13.7773C17.0078 13.6641 17.5039 13.5898 17.918 13.5547C18.332 13.5195 18.7461 13.4922 19.1602 13.4766V11.9375C19.1602 11.4102 19.0703 11.0195 18.8984 10.7617ZM25.9492 25.5898C25.8398 25.7188 25.6562 25.8945 25.3984 26.1172C25.1406 26.3398 24.7422 26.6133 24.207 26.9414C23.6719 27.2695 23.082 27.5664 22.4492 27.8359C21.8125 28.1055 21.0312 28.3398 20.1016 28.5391C19.1758 28.7383 18.2188 28.8359 17.2383 28.8359C16.2461 28.8359 15.2578 28.7109 14.2656 28.4609C13.2734 28.2109 12.4062 27.9023 11.6562 27.5352C10.9102 27.168 10.1875 26.7461 9.50391 26.2773C8.81641 25.8047 8.26562 25.3828 7.84766 25.0078C7.43359 24.6328 7.08203 24.2773 6.80078 23.9492C6.73438 23.875 6.69141 23.8086 6.67578 23.75C6.66016 23.6914 6.66406 23.6406 6.6875 23.6055C6.71094 23.5703 6.74609 23.543 6.78906 23.5195C6.83573 23.4988 6.88704 23.4908 6.9378 23.4963C6.98855 23.5018 7.03696 23.5206 7.07812 23.5508C8.67578 24.4961 9.92578 25.1641 10.8242 25.5586C14.0625 26.9805 17.3867 27.3438 20.7969 26.6484C22.3789 26.3242 24.0039 25.7812 25.6758 25.0156C25.8008 24.9687 25.9102 24.957 26 24.9805C26.0898 25.0039 26.1367 25.0742 26.1367 25.1914C26.1367 25.3008 26.0742 25.4375 25.9492 25.5898ZM28.2891 24.457C28.2188 24.8906 28.0977 25.3008 27.9336 25.6992C27.6523 26.3672 27.2969 26.8711 26.875 27.1992C26.7344 27.3125 26.625 27.3477 26.5508 27.3086C26.4766 27.2695 26.4766 27.1719 26.5508 27.0195C26.7266 26.6562 26.9102 26.168 27.1055 25.5469C27.3008 24.9297 27.3281 24.5312 27.1875 24.3555C27.1445 24.2969 27.082 24.2539 26.9922 24.2148C26.9062 24.1797 26.793 24.1562 26.6562 24.1406C26.5195 24.125 26.3945 24.1172 26.2891 24.1094C26.1797 24.1016 26.0352 24.1016 25.8516 24.1094C25.668 24.1172 25.5391 24.125 25.457 24.1328C25.2346 24.1545 25.0119 24.1741 24.7891 24.1914C24.7383 24.1992 24.6836 24.207 24.6289 24.2109C24.5703 24.2148 24.5234 24.2188 24.4922 24.2227L24.3867 24.2344C24.3477 24.2383 24.3203 24.2422 24.3008 24.2422H24.1758L24.1367 24.2344L24.1133 24.2148L24.0938 24.1797C24.043 24.0508 24.2383 23.8906 24.6797 23.6953C25.1211 23.5 25.5508 23.3789 25.9648 23.332C26.3477 23.2734 26.7969 23.2734 27.3125 23.3203C27.8281 23.3672 28.1445 23.4648 28.2617 23.6094C28.3516 23.7461 28.3594 24.0273 28.2891 24.457Z" fill="#2D2229"/>
</svg>
