<svg width="56" height="54" viewBox="0 0 56 54" fill="none" xmlns="http://www.w3.org/2000/svg">
<path d="M25.8452 36.999L25.3726 48.6495L25.3099 49.347L12.0715 48.429C11.2753 48.3467 10.5305 47.9953 9.95916 47.4322C9.3359 46.8625 8.83707 46.1692 8.4942 45.396L8.47852 45.3577C8.2522 44.8114 8.10001 44.237 8.02604 43.65L8.02156 43.6162C7.95294 42.913 7.99833 42.2033 8.15596 41.5147L8.147 41.5575C8.30529 40.776 8.42849 40.1955 8.5166 39.816C8.74508 38.988 8.9758 38.3152 9.24236 37.6582L9.19532 37.791C9.55222 36.8205 9.75158 36.2632 9.7934 36.1192C11.4346 36.3697 16.7837 36.6637 25.8408 37.0012L25.8452 36.999ZM13.644 18.4477L19.3179 30.447L14.6856 27.5355C13.4564 28.9351 12.3163 30.411 11.2718 31.9545L11.1732 32.1097C10.3848 33.2415 9.62316 34.5397 8.9646 35.8942L8.88844 36.0675C8.38369 37.182 7.96929 38.1795 7.64524 39.06C7.3935 39.682 7.20221 40.327 7.07404 40.986L7.06284 41.0557L6.9374 41.7195L0.949876 30.4177C0.599319 29.8934 0.40291 29.2805 0.383156 28.6492V28.6425C0.341769 28.1305 0.407386 27.6155 0.575796 27.1305L0.569076 27.1575L0.819956 26.5882C1.55916 25.2592 2.75681 23.2785 4.41292 20.646L0.00683594 17.9122L13.644 18.4477ZM52.4408 34.8165L46.5249 46.1812C46.2893 46.7679 45.8942 47.2762 45.3848 47.6482L45.3758 47.655C44.98 47.9683 44.5192 48.1883 44.0273 48.2985L44.0049 48.303L43.4382 48.429C41.9464 48.576 39.6459 48.6997 36.5368 48.8002L36.7876 54L29.539 42.381L36.194 30.9195L36.4136 36.396C39.4302 36.7278 42.471 36.7775 45.4968 36.5445L45.331 36.5557C47.2088 36.4354 49.0629 36.0686 50.8459 35.4645L50.6936 35.5095L52.4408 34.8165ZM27.7067 5.56198C26.7211 6.89098 23.9368 11.4817 19.3537 19.3342L9.37004 13.4145L8.77196 13.0432L15.8638 1.77298C16.3118 1.10248 16.9614 0.600732 17.7252 0.350982L17.7499 0.344232C18.564 0.0462401 19.4352 -0.0607386 20.2968 0.0314819L20.2721 0.0292319C20.8344 0.0787319 21.354 0.211482 21.8356 0.413982L21.802 0.400482C22.3105 0.607482 22.7406 0.832482 23.1483 1.08898L23.1124 1.06873C23.6008 1.39723 24.0286 1.74148 24.4228 2.11723L24.4184 2.11273C24.9231 2.57773 25.3017 2.94148 25.554 3.20398C25.8064 3.46648 26.185 3.88273 26.6897 4.45273C27.1989 5.02273 27.5379 5.39248 27.7067 5.56198ZM48.3505 15.2797L55.0324 26.7727C55.4128 27.5241 55.5498 28.376 55.4244 29.2095L55.4267 29.187C55.3061 30.0304 55.0058 30.8378 54.5464 31.554L54.5598 31.5315C54.2725 31.9673 53.9248 32.3598 53.5272 32.697L53.5182 32.7037C53.1543 33.0198 52.7672 33.3079 52.3601 33.5655L52.3198 33.588C51.8852 33.8467 51.379 34.0807 50.8504 34.2652L50.7899 34.2832C50.1492 34.5157 49.6564 34.6845 49.3115 34.7895C48.9665 34.8945 48.4252 35.0422 47.6875 35.2327L46.2382 35.604C45.5229 34.0845 42.7386 29.4832 37.8852 21.8002L47.7502 15.6262L48.3505 15.2797ZM43.8436 8.12473L48.3192 5.49673L41.3864 17.307L28.1771 16.6747L32.9371 13.9522C32.232 12.0664 31.4021 10.23 30.4529 8.45548L30.5739 8.70298C29.8601 7.30921 29.0432 5.9712 28.13 4.70023L28.1928 4.79248C27.4685 3.80998 26.7905 2.96548 26.1588 2.25898C25.7119 1.73425 25.2235 1.24667 24.6984 0.800982L24.6804 0.785232L24.1451 0.373482L36.9019 0.404982C37.5379 0.336263 38.18 0.455103 38.7499 0.746982L38.732 0.737982C39.218 0.958482 39.628 1.26448 39.964 1.64023L39.9662 1.64473L40.3134 2.11948C41.1332 3.40048 42.31 5.40223 43.8436 8.12473Z" fill="#2D2229"/>
</svg>
