<svg width="28" height="28" viewBox="0 0 28 28" fill="none" xmlns="http://www.w3.org/2000/svg">
<path d="M14.0003 0.666687C17.623 0.666687 18.075 0.68002 19.4963 0.746687C20.9163 0.813354 21.883 1.03602 22.7337 1.36669C23.6137 1.70535 24.355 2.16402 25.0963 2.90402C25.7743 3.57055 26.2989 4.37681 26.6337 5.26669C26.963 6.11602 27.187 7.08402 27.2537 8.50402C27.3163 9.92535 27.3337 10.3774 27.3337 14C27.3337 17.6227 27.3203 18.0747 27.2537 19.496C27.187 20.916 26.963 21.8827 26.6337 22.7334C26.2999 23.6237 25.7752 24.4302 25.0963 25.096C24.4296 25.7738 23.6234 26.2984 22.7337 26.6334C21.8843 26.9627 20.9163 27.1867 19.4963 27.2534C18.075 27.316 17.623 27.3334 14.0003 27.3334C10.3777 27.3334 9.92566 27.32 8.50432 27.2534C7.08432 27.1867 6.11766 26.9627 5.26699 26.6334C4.37676 26.2993 3.57036 25.7746 2.90433 25.096C2.2262 24.4296 1.70157 23.6233 1.36699 22.7334C1.03633 21.884 0.813659 20.916 0.746992 19.496C0.684325 18.0747 0.666992 17.6227 0.666992 14C0.666992 10.3774 0.680325 9.92535 0.746992 8.50402C0.813659 7.08269 1.03633 6.11735 1.36699 5.26669C1.70064 4.37626 2.2254 3.56978 2.90433 2.90402C3.57055 2.22566 4.3769 1.70099 5.26699 1.36669C6.11766 1.03602 7.08299 0.813354 8.50432 0.746687C9.92566 0.68402 10.3777 0.666687 14.0003 0.666687ZM14.0003 7.33335C12.2322 7.33335 10.5365 8.03573 9.28628 9.28597C8.03604 10.5362 7.33366 12.2319 7.33366 14C7.33366 15.7681 8.03604 17.4638 9.28628 18.7141C10.5365 19.9643 12.2322 20.6667 14.0003 20.6667C15.7684 20.6667 17.4641 19.9643 18.7144 18.7141C19.9646 17.4638 20.667 15.7681 20.667 14C20.667 12.2319 19.9646 10.5362 18.7144 9.28597C17.4641 8.03573 15.7684 7.33335 14.0003 7.33335ZM22.667 7.00002C22.667 6.55799 22.4914 6.13407 22.1788 5.82151C21.8663 5.50895 21.4424 5.33335 21.0003 5.33335C20.5583 5.33335 20.1344 5.50895 19.8218 5.82151C19.5093 6.13407 19.3337 6.55799 19.3337 7.00002C19.3337 7.44205 19.5093 7.86597 19.8218 8.17853C20.1344 8.49109 20.5583 8.66669 21.0003 8.66669C21.4424 8.66669 21.8663 8.49109 22.1788 8.17853C22.4914 7.86597 22.667 7.44205 22.667 7.00002ZM14.0003 10C15.0612 10 16.0786 10.4214 16.8288 11.1716C17.5789 11.9217 18.0003 12.9392 18.0003 14C18.0003 15.0609 17.5789 16.0783 16.8288 16.8284C16.0786 17.5786 15.0612 18 14.0003 18C12.9395 18 11.922 17.5786 11.1719 16.8284C10.4218 16.0783 10.0003 15.0609 10.0003 14C10.0003 12.9392 10.4218 11.9217 11.1719 11.1716C11.922 10.4214 12.9395 10 14.0003 10Z" fill="#D6A24C"/>
</svg>
