<svg width="44" height="53" viewBox="0 0 44 53" fill="none" xmlns="http://www.w3.org/2000/svg">
<path d="M23.7603 0.880001C22.747 1.20699e-06 21.227 1.20699e-06 20.2137 0.880001C7.20032 12.3467 0.666992 22.32 0.666992 30.8C0.666992 44.08 10.8003 52.6667 22.0003 52.6667C33.2003 52.6667 43.3337 44.08 43.3337 30.8C43.3337 22.32 36.8003 12.3467 23.7603 0.880001ZM10.8803 31.3333C11.867 31.3333 12.667 32.0267 12.8537 32.9867C13.947 38.9067 18.9337 40.9333 22.5603 40.64C23.707 40.5867 24.667 41.4933 24.667 42.64C24.667 43.7067 23.8137 44.5867 22.747 44.64C17.067 44.9867 10.427 41.7333 8.90699 33.6533C8.86065 33.3674 8.87696 33.0749 8.95479 32.7959C9.03262 32.5169 9.17012 32.2582 9.35778 32.0375C9.54543 31.8169 9.77877 31.6397 10.0417 31.5181C10.3045 31.3965 10.5907 31.3335 10.8803 31.3333Z" fill="#2D2229"/>
</svg>
